<svg width="61" height="21" viewBox="0 0 61 21" fill="none" xmlns="http://www.w3.org/2000/svg">
<path d="M15.0526 0.636363V7.62642C15.0526 10.8082 13.581 12.3395 11.2443 12.6776V0.636363H7.61506V12.6676C5.07955 12.2798 3.6179 10.5597 3.6179 7.62642V0.636363H0.00852269V7.62642C0.00852269 12.5185 3.08097 15.3622 7.61506 15.7301V21H11.2443V15.7202C15.6989 15.3026 18.7017 12.4688 18.7017 7.62642V0.636363H15.0526ZM25.7862 0.636363H21.5604L27.9141 10.8182L21.4808 21H25.7365L30.2706 13.5923H30.4297L34.9638 21H39.2393L32.8658 10.8182L39.1399 0.636363H34.9339L30.4297 8.09375H30.2706L25.7862 0.636363ZM41.4293 21H49.2248V17.1023C46.918 16.1477 45.1183 13.5227 45.1183 10.2812C45.1183 6.53267 47.4947 3.67898 50.8455 3.67898C54.2063 3.67898 56.5728 6.53267 56.5728 10.2812C56.5728 13.5227 54.7731 16.1477 52.4663 17.1023V21H60.2617V17.9077H56.3143V17.7486C58.7404 16.1776 60.2617 13.6122 60.2617 10.0526C60.2617 4.375 56.354 0.357954 50.8455 0.357954C45.337 0.357954 41.4293 4.375 41.4293 10.0526C41.4293 13.6122 42.9506 16.1776 45.3768 17.7486V17.9077H41.4293V21Z" fill="#212121"/>
</svg>
